<svg width="120" height="24" viewBox="0 0 120 24" fill="none" xmlns="http://www.w3.org/2000/svg">
<g clip-path="url(#clip0_3_38)">
<path d="M103.325 18.923L104.565 13.61L100.442 10.038L105.873 9.56801L108 4.55701L110.127 9.56701L115.557 10.037L111.434 13.609L112.675 18.922L108 16.102L103.325 18.923Z" fill="#FFB8B8"/>
<path d="M103.325 18.923L104.565 13.61L100.442 10.038L105.873 9.56801L108 4.55701L110.127 9.56701L115.557 10.037L111.434 13.609L112.675 18.922L108 16.102L103.325 18.923Z" fill="#FFB8B8"/>
</g>
<g clip-path="url(#clip1_3_38)">
<path d="M79.325 18.923L80.565 13.61L76.442 10.038L81.873 9.56801L84 4.55701L86.127 9.56701L91.557 10.037L87.434 13.609L88.675 18.922L84 16.102L79.325 18.923Z" fill="#FFB8B8"/>
<path d="M79.325 18.923L80.565 13.61L76.442 10.038L81.873 9.56801L84 4.55701L86.127 9.56701L91.557 10.037L87.434 13.609L88.675 18.922L84 16.102L79.325 18.923Z" fill="#FFB8B8"/>
</g>
<mask id="mask0_3_38" style="mask-type:alpha" maskUnits="userSpaceOnUse" x="0" y="0" width="96" height="24">
<path d="M7.32502 18.923L8.56502 13.61L4.44202 10.038L9.87302 9.56801L12 4.55701L14.127 9.56701L19.557 10.037L15.434 13.609L16.675 18.922L12 16.102L7.32502 18.923Z" fill="#FFB8B8"/>
<path d="M31.325 18.923L32.565 13.61L28.442 10.038L33.873 9.56801L36 4.55701L38.127 9.56701L43.557 10.037L39.434 13.609L40.675 18.922L36 16.102L31.325 18.923Z" fill="#FFB8B8"/>
<path d="M55.325 18.923L56.565 13.61L52.442 10.038L57.873 9.56801L60 4.55701L62.127 9.56701L67.557 10.037L63.434 13.609L64.675 18.922L60 16.102L55.325 18.923Z" fill="#FFB8B8"/>
<path d="M79.325 18.923L80.565 13.61L76.442 10.038L81.873 9.56801L84 4.55701L86.127 9.56701L91.557 10.037L87.434 13.609L88.675 18.922L84 16.102L79.325 18.923Z" fill="#FFB8B8"/>
</mask>
<g mask="url(#mask0_3_38)">
<rect x="-20" y="4" width="104" height="15" fill="#FF4949"/>
</g>
<defs>
<clipPath id="clip0_3_38">
<rect width="24" height="24" fill="white" transform="translate(96)"/>
</clipPath>
<clipPath id="clip1_3_38">
<rect width="24" height="24" fill="white" transform="translate(72)"/>
</clipPath>
</defs>
</svg>
